HIERARCHY
ROOT Hips
{
 OFFSET 0.000000 0.000000 0.000000
 CHANNELS 6 Xposition Yposition Zposition Yrotation Xrotation Zrotation
 JOINT Chest
 {
  OFFSET 0.000000 9.588913 -0.003946
  CHANNELS 3 Yrotation Xrotation Zrotation
  JOINT Chest2
  {
   OFFSET 0.000000 9.541882 0.008053
   CHANNELS 3 Yrotation Xrotation Zrotation
   JOINT Chest3
   {
    OFFSET 0.000000 9.501360 0.000000
    CHANNELS 3 Yrotation Xrotation Zrotation
    JOINT Chest4
    {
     OFFSET 0.000000 9.491660 0.000000
     CHANNELS 3 Yrotation Xrotation Zrotation
     JOINT Neck
     {
      OFFSET 0.000000 14.331917 0.000000
      CHANNELS 3 Yrotation Xrotation Zrotation
      JOINT Head
      {
       OFFSET 0.000000 8.884799 0.017034
       CHANNELS 3 Yrotation Xrotation Zrotation
       End Site
       {
        OFFSET 0.000000 16.896195 0.008993
       }
      }
     }
     JOINT RightCollar
     {
      OFFSET -2.923010 9.499495 0.000000
      CHANNELS 3 Yrotation Xrotation Zrotation
      JOINT RightShoulder
      {
       OFFSET -13.795216 0.000000 0.000000
       CHANNELS 3 Yrotation Xrotation Zrotation
       JOINT RightElbow
       {
        OFFSET -30.272209 0.000000 0.000000
        CHANNELS 3 Yrotation Xrotation Zrotation
        JOINT RightWrist
        {
         OFFSET -24.478199 0.000000 0.000000
         CHANNELS 3 Yrotation Xrotation Zrotation
         End Site
         {
          OFFSET -18.090752 0.000000 0.000000
         }
        }
       }
      }
     }
     JOINT LeftCollar
     {
      OFFSET 2.923010 9.499495 0.000000
      CHANNELS 3 Yrotation Xrotation Zrotation
      JOINT LeftShoulder
      {
       OFFSET 13.795216 0.000000 0.000000
       CHANNELS 3 Yrotation Xrotation Zrotation
       JOINT LeftElbow
       {
        OFFSET 30.272209 0.000000 0.000000
        CHANNELS 3 Yrotation Xrotation Zrotation
        JOINT LeftWrist
        {
         OFFSET 24.478199 0.000000 0.000000
         CHANNELS 3 Yrotation Xrotation Zrotation
         End Site
         {
          OFFSET 18.090752 0.000000 0.000000
         }
        }
       }
      }
     }
    }
   }
  }
 }
 JOINT RightHip
 {
  OFFSET -7.826875 0.019532 0.001973
  CHANNELS 3 Yrotation Xrotation Zrotation
  JOINT RightKnee
  {
   OFFSET 0.000000 -40.546152 -0.001885
   CHANNELS 3 Yrotation Xrotation Zrotation
   JOINT RightAnkle
   {
    OFFSET 0.000000 -39.417092 -0.003189
    CHANNELS 3 Yrotation Xrotation Zrotation
    JOINT RightToe
    {
     OFFSET 0.000000 -7.579396 17.243563
     CHANNELS 3 Yrotation Xrotation Zrotation
     End Site
     {
      OFFSET 0.000000 -1.500329 6.694466
     }
    }
   }
  }
 }
 JOINT LeftHip
 {
  OFFSET 7.826875 0.019532 0.001973
  CHANNELS 3 Yrotation Xrotation Zrotation
  JOINT LeftKnee
  {
   OFFSET 0.000000 -40.546152 -0.001885
   CHANNELS 3 Yrotation Xrotation Zrotation
   JOINT LeftAnkle
   {
    OFFSET 0.000000 -39.417092 -0.003189
    CHANNELS 3 Yrotation Xrotation Zrotation
    JOINT LeftToe
    {
     OFFSET 0.000000 -7.579396 17.243563
     CHANNELS 3 Yrotation Xrotation Zrotation
     End Site
     {
      OFFSET 0.000000 -1.500329 6.694466
     }
    }
   }
  }
 }
}
MOTION
Frames: 17
Frame Time: 0.008333
0.000000 87.345680 0.000000 0.000000 -5.767889 0.000000 0.000000 11.653876 0.000000 0.000000 -5.885988 0.000000 0.000000 -0.000000 0.000000 0.000000 -0.000000 0.000000 0.000000 12.528808 0.000000 0.000000 0.711711 0.000000 0.000000 -0.000000 0.000000 0.000000 -0.000000 0.000000 2.309063 -0.000000 0.000000 -2.309063 -0.000000 -0.000000 0.000000 -0.000000 0.000000 0.000000 0.000000 0.000000 -2.309063 0.000000 0.000000 2.309063 -0.000000 0.000000 0.000000 8.520374 0.000000 0.000000 1.905768 0.000000 -0.000000 -4.658254 0.000000 0.000000 -0.000000 0.000000 0.000000 8.520374 0.000000 0.000000 1.905768 0.000000 -0.000000 -4.658254 0.000000 0.000000 -0.000000 0.000000
-1.675483 89.272845 -6.148130 -135.625838 -6.261514 -0.762697 3.144409 1.205309 -0.061753 1.804513 0.691092 -0.005352 2.255672 0.863865 -0.003289 1.804513 0.691092 -0.005352 -2.458524 22.609453 0.307788 -2.717051 -1.475469 0.893182 -0.746682 -0.660323 0.953087 -10.314785 2.542794 90.816086 2.779178 0.701227 1.394479 2.430437 -6.563486 1.087580 -6.923223 -0.189511 -0.074140 9.098740 1.588126 -88.150027 0.894557 -6.706383 -2.270430 -0.622828 -5.070140 -1.577480 -4.966763 6.263603 -0.866696 -0.132285 2.872325 -0.890339 1.692749 -3.677719 1.805415 -0.000725 -0.079571 0.011044 7.861254 7.258158 -0.057379 -2.550591 0.459973 -0.212058 -2.339934 -2.442715 2.058516 -0.015330 0.041659 -0.008839
-1.678423 89.271795 -6.181734 -135.630261 -6.258705 -0.760226 3.148992 1.199469 -0.069139 1.808622 0.685653 -0.010871 2.260797 0.857093 -0.010206 1.808622 0.685653 -0.010871 -2.451114 22.601636 0.306194 -2.708579 -1.485028 0.889752 -0.762830 -0.659552 0.943136 -10.329214 2.589783 90.842516 2.770987 0.730925 1.393890 2.425530 -6.561404 1.088661 -6.927486 -0.196576 -0.050442 9.113502 1.616697 -88.139155 0.904998 -6.690485 -2.254733 -0.619731 -5.065737 -1.580259 -4.974983 6.288422 -0.856108 -0.139837 2.857488 -0.888338 1.704900 -3.682741 1.782635 0.001424 -0.077824 0.013948 7.875863 7.270636 -0.046467 -2.544047 0.460399 -0.203961 -2.352868 -2.455573 2.042075 -0.013660 0.043602 -0.010079
-1.681968 89.270716 -6.220456 -135.637381 -6.255139 -0.755286 3.154674 1.191845 -0.077325 1.813319 0.680157 -0.016607 2.266658 0.850252 -0.017395 1.813319 0.680157 -0.016607 -2.444614 22.596509 0.305143 -2.701248 -1.491354 0.887121 -0.779651 -0.657174 0.933876 -10.347087 2.637076 90.867633 2.763975 0.756493 1.393109 2.420152 -6.556214 1.087437 -6.927627 -0.203291 -0.027413 9.127605 1.643406 -88.128177 0.915215 -6.681179 -2.242036 -0.618734 -5.058591 -1.577762 -4.983087 6.317760 -0.847075 -0.149808 2.837669 -0.883855 1.719827 -3.688291 1.756902 0.002867 -0.075427 0.016031 7.896801 7.285279 -0.033054 -2.541749 0.459963 -0.199045 -2.366590 -2.469334 2.025528 -0.012575 0.044534 -0.011582
-1.685686 89.269726 -6.262840 -135.644873 -6.250392 -0.749316 3.160487 1.182283 -0.087561 1.817917 0.674232 -0.022663 2.272393 0.842876 -0.024985 1.817917 0.674232 -0.022663 -2.438542 22.594004 0.305132 -2.694650 -1.494536 0.885711 -0.798700 -0.652594 0.926961 -10.363329 2.685089 90.894000 2.756319 0.774103 1.389831 2.417072 -6.552934 1.087607 -6.925166 -0.208985 -0.001315 9.148302 1.668986 -88.118860 0.925700 -6.673410 -2.229144 -0.617641 -5.054393 -1.574537 -4.991720 6.351194 -0.838063 -0.157611 2.811731 -0.878856 1.733907 -3.694019 1.730149 0.003076 -0.072182 0.017416 7.919278 7.300292 -0.016383 -2.541022 0.459109 -0.195913 -2.385887 -2.483831 2.005628 -0.012130 0.045091 -0.011776
-1.689219 89.268941 -6.307487 -135.651964 -6.244854 -0.743284 3.165958 1.171866 -0.099017 1.822046 0.668320 -0.029129 2.277543 0.835519 -0.033090 1.822046 0.668320 -0.029129 -2.432959 22.593469 0.305554 -2.688702 -1.495357 0.884883 -0.819577 -0.647583 0.921462 -10.373188 2.734445 90.925778 2.749343 0.778727 1.383770 2.415735 -6.557170 1.087923 -6.921673 -0.214614 0.028004 9.175536 1.694183 -88.111419 0.933414 -6.670193 -2.216643 -0.615488 -5.052567 -1.573153 -5.001473 6.389143 -0.828711 -0.160301 2.777884 -0.873918 1.745940 -3.698011 1.704772 0.002478 -0.068740 0.017193 7.941527 7.315514 0.001472 -2.540134 0.457556 -0.193124 -2.403640 -2.499063 1.983369 -0.011499 0.045604 -0.010807
-1.692218 89.268415 -6.353013 -135.658268 -6.237872 -0.736948 3.172243 1.161129 -0.109739 1.826340 0.662483 -0.035720 2.282898 0.828256 -0.041350 1.826340 0.662483 -0.035720 -2.429494 22.594186 0.305210 -2.684882 -1.494629 0.883718 -0.841621 -0.642561 0.912336 -10.385129 2.784475 90.965758 2.744270 0.774926 1.374657 2.413385 -6.566773 1.087281 -6.921294 -0.221018 0.055060 9.207570 1.719658 -88.103456 0.937116 -6.671447 -2.208325 -0.613027 -5.051980 -1.571136 -5.009726 6.430297 -0.818760 -0.160133 2.735489 -0.869689 1.754153 -3.698116 1.682404 0.001934 -0.065861 0.014886 7.961436 7.328559 0.017625 -2.542460 0.457558 -0.189802 -2.409968 -2.515265 1.961622 -0.010242 0.045639 -0.010232
-1.694421 89.268172 -6.398623 -135.664490 -6.229980 -0.730648 3.180441 1.150664 -0.119730 1.831581 0.656819 -0.042158 2.289438 0.821208 -0.049416 1.831581 0.656819 -0.042158 -2.428579 22.595078 0.304197 -2.683669 -1.493616 0.882418 -0.866646 -0.639093 0.901015 -10.407555 2.833915 91.010576 2.738411 0.770622 1.363041 2.412098 -6.576949 1.085367 -6.927078 -0.228065 0.078969 9.249538 1.745462 -88.096340 0.936639 -6.670158 -2.202794 -0.610992 -5.054602 -1.568376 -5.013594 6.470864 -0.806499 -0.162880 2.691946 -0.867944 1.760857 -3.696668 1.662039 0.001888 -0.064001 0.012139 7.978550 7.338241 0.032029 -2.548357 0.461471 -0.185108 -2.405883 -2.532196 1.940746 -0.008907 0.044596 -0.010600
-1.695628 89.268172 -6.443833 -135.669920 -6.221630 -0.724829 3.188978 1.141002 -0.129518 1.836919 0.651591 -0.048444 2.296100 0.814705 -0.057290 1.836919 0.651591 -0.048444 -2.428474 22.595945 0.302614 -2.683199 -1.492615 0.880691 -0.892649 -0.638627 0.891322 -10.441803 2.883465 91.054618 2.732750 0.769625 1.351459 2.415216 -6.582824 1.081801 -6.935989 -0.235509 0.103096 9.302686 1.770415 -88.092307 0.932500 -6.664079 -2.199479 -0.610593 -5.060230 -1.566064 -5.015634 6.508358 -0.792931 -0.167874 2.652532 -0.866308 1.767494 -3.695705 1.640775 0.002616 -0.063166 0.010311 7.992664 7.344826 0.045858 -2.550904 0.468709 -0.178845 -2.403652 -2.548984 1.919891 -0.008246 0.042766 -0.011663
-1.695512 89.268314 -6.488318 -135.676583 -6.212078 -0.720286 3.197557 1.131166 -0.139144 1.842062 0.646344 -0.054600 2.302517 0.808178 -0.065002 1.842062 0.646344 -0.054600 -2.427548 22.597744 0.301226 -2.681896 -1.490533 0.878986 -0.917353 -0.638154 0.883168 -10.484624 2.934571 91.097130 2.731921 0.775296 1.341551 2.419790 -6.586659 1.076432 -6.944005 -0.242814 0.128705 9.359976 1.793557 -88.090048 0.926864 -6.656542 -2.198229 -0.611655 -5.065736 -1.563531 -5.015067 6.542467 -0.779517 -0.170650 2.615392 -0.860081 1.771961 -3.693837 1.616997 0.003836 -0.063037 0.008822 8.004786 7.347646 0.060809 -2.549653 0.478638 -0.171284 -2.406665 -2.566137 1.898188 -0.008257 0.041113 -0.013063
-1.693987 89.268474 -6.531779 -135.689138 -6.200687 -0.716366 3.207617 1.120173 -0.149229 1.848054 0.640500 -0.060763 2.309998 0.800905 -0.072724 1.848054 0.640500 -0.060762 -2.425051 22.600648 0.301359 -2.679257 -1.487169 0.878559 -0.941085 -0.635324 0.876280 -10.527429 2.984649 91.139287 2.731516 0.781850 1.332278 2.424499 -6.590899 1.071364 -6.949826 -0.249550 0.155079 9.413631 1.815354 -88.088665 0.921156 -6.649733 -2.196199 -0.613235 -5.068641 -1.562636 -5.008150 6.572605 -0.766310 -0.173814 2.579182 -0.849907 1.777292 -3.691155 1.592185 0.004828 -0.062551 0.006722 8.017963 7.346526 0.076118 -2.547147 0.490795 -0.162884 -2.409147 -2.583595 1.876691 -0.008448 0.039515 -0.015026
-1.691573 89.268574 -6.574117 -135.704469 -6.189316 -0.711432 3.218090 1.108667 -0.160194 1.854481 0.634308 -0.067142 2.318021 0.793199 -0.080718 1.854481 0.634308 -0.067142 -2.421449 22.604783 0.303587 -2.675920 -1.482352 0.880138 -0.963407 -0.630137 0.869936 -10.564584 3.030767 91.180835 2.726241 0.783062 1.323692 2.429791 -6.593276 1.066179 -6.955139 -0.255465 0.180997 9.463204 1.836435 -88.086291 0.916232 -6.644025 -2.194240 -0.616467 -5.068452 -1.562998 -4.998162 6.601152 -0.753432 -0.180231 2.543831 -0.840453 1.785052 -3.689406 1.569296 0.005449 -0.060993 0.003787 8.028982 7.343517 0.088309 -2.541522 0.505374 -0.153451 -2.407019 -2.600719 1.857192 -0.008578 0.037357 -0.017768
-1.688873 89.268605 -6.615749 -135.719526 -6.181786 -0.705564 3.228499 1.098004 -0.171843 1.860831 0.628439 -0.073747 2.325947 0.785897 -0.088993 1.860831 0.628439 -0.073747 -2.416860 22.610219 0.307937 -2.672019 -1.475989 0.883776 -0.986501 -0.622944 0.864009 -10.593233 3.074708 91.219986 2.719107 0.782738 1.318531 2.432057 -6.596922 1.057829 -6.961660 -0.259713 0.206080 9.510538 1.857571 -88.081028 0.911343 -6.637346 -2.193923 -0.621212 -5.068526 -1.562021 -4.985306 6.632580 -0.740261 -0.186685 2.509698 -0.834031 1.790220 -3.689188 1.549332 0.005851 -0.058901 0.000653 8.036070 7.342676 0.098901 -2.535048 0.522457 -0.143136 -2.403852 -2.618288 1.838519 -0.009107 0.035171 -0.020823
-1.685900 89.268530 -6.656870 -135.737056 -6.178090 -0.699648 3.240025 1.088420 -0.182987 1.867745 0.623025 -0.080057 2.334580 0.779163 -0.096896 1.867745 0.623025 -0.080057 -2.411527 22.616682 0.313021 -2.667493 -1.468421 0.888036 -1.012683 -0.615690 0.857212 -10.612163 3.117924 91.257596 2.710080 0.782469 1.312894 2.428139 -6.600638 1.051065 -6.967825 -0.262591 0.230232 9.552098 1.877699 -88.075466 0.906667 -6.628807 -2.193562 -0.625388 -5.071334 -1.560683 -4.966411 6.665895 -0.726632 -0.190761 2.478482 -0.828344 1.791298 -3.690305 1.529048 0.005942 -0.056924 -0.001038 8.044033 7.345301 0.110742 -2.532072 0.539676 -0.132074 -2.401726 -2.636096 1.818449 -0.009916 0.033505 -0.023259
-1.682550 89.268310 -6.697269 -135.754500 -6.175674 -0.693753 3.251860 1.080102 -0.193451 1.874889 0.618185 -0.086079 2.343500 0.773146 -0.104436 1.874889 0.618185 -0.086079 -2.407063 22.623651 0.318310 -2.663960 -1.460219 0.892717 -1.040733 -0.611992 0.848650 -10.624533 3.160749 91.296224 2.697216 0.780247 1.303013 2.421212 -6.598171 1.047925 -6.973908 -0.268543 0.254378 9.583984 1.896575 -88.072264 0.903092 -6.624395 -2.193000 -0.627778 -5.075536 -1.556723 -4.945957 6.698316 -0.714686 -0.194307 2.450759 -0.819470 1.791387 -3.692843 1.506122 0.005541 -0.055052 -0.001457 8.052112 7.350272 0.121844 -2.532322 0.553672 -0.121419 -2.391536 -2.651735 1.798130 -0.010153 0.031929 -0.024155
-1.679123 89.267981 -6.736920 -135.769855 -6.174399 -0.686710 3.263563 1.074269 -0.204516 1.881904 0.614682 -0.092480 2.352259 0.768801 -0.112442 1.881904 0.614682 -0.092480 -2.404410 22.629947 0.325119 -2.662729 -1.452729 0.899450 -1.069155 -0.615176 0.838840 -10.632761 3.204611 91.336159 2.683166 0.778460 1.292224 2.415517 -6.592597 1.045226 -6.984867 -0.281591 0.279817 9.613658 1.916322 -88.070853 0.898942 -6.625823 -2.192497 -0.628802 -5.079604 -1.549367 -4.928428 6.730737 -0.706446 -0.198492 2.424879 -0.807297 1.793526 -3.696986 1.481774 0.004837 -0.052700 -0.001737 8.060509 7.357782 0.131384 -2.533180 0.564048 -0.111993 -2.378234 -2.664569 1.778239 -0.010057 0.030233 -0.023862
-1.675875 89.267632 -6.776236 -135.786192 -6.175956 -0.678685 3.274629 1.070936 -0.216049 1.888424 0.612570 -0.099532 2.360397 0.766199 -0.121258 1.888424 0.612570 -0.099532 -2.401213 22.636180 0.334053 -2.661400 -1.445298 0.908348 -1.093807 -0.624382 0.828238 -10.636798 3.250449 91.378153 2.669807 0.780204 1.280758 2.409344 -6.590501 1.044866 -6.998573 -0.297099 0.306344 9.651202 1.936056 -88.070438 0.893151 -6.630071 -2.190925 -0.627881 -5.079377 -1.543835 -4.914069 6.765888 -0.700061 -0.202144 2.398648 -0.795278 1.798955 -3.701471 1.457287 0.004166 -0.050135 -0.001678 8.072655 7.369026 0.141588 -2.532356 0.572839 -0.103296 -2.372068 -2.677221 1.758167 -0.009798 0.029099 -0.023385
